# xmcd
#
# Track frame offsets: 
#        150
#        26885
#        58585
#        87227
#        121966
#        152070
#        184006
#        207272
#        228792
#        252397
#        278837
#
# Disc length: 4175 seconds
#
# Revision: 0
# Processed by: cddbd v1.5.1PL0 Copyright (c) Steve Scherf et al.
# Submitted via: ExactAudioCopy v0.95a5
#
DISCID=92104d0b
DTITLE=Hot Tuna - 1977-11-26 Palladium New York, NY
DYEAR=1977
DGENRE=Blues
TTITLE0=I Wish You Would
TTITLE1=Serpent Of Dreams
TTITLE2=I Can't Be Satisfied
TTITLE3=Sunrise Dance With The Devil
TTITLE4=Bar Room Crystal Ball
TTITLE5=Snow Gorilla
TTITLE6=Bowlegged Woman, Knock Kneed Man
TTITLE7=Police Dog Blues
TTITLE8=Talking 'Bout You
TTITLE9=Bright Eyes
TTITLE10=I See The Light
EXTD=
EXTT0=
EXTT1=
EXTT2=
EXTT3=
EXTT4=
EXTT5=
EXTT6=
EXTT7=
EXTT8=
EXTT9=
EXTT10=
PLAYORDER=
